<?xml version="1.0" encoding="utf-8"?>
<!-- Generator: Adobe Illustrator 24.3.0, SVG Export Plug-In . SVG Version: 6.00 Build 0)  -->
<svg version="1.1" id="Layer_1" xmlns="http://www.w3.org/2000/svg" xmlns:xlink="http://www.w3.org/1999/xlink" x="0px" y="0px"
	 viewBox="0 0 222.2 154.3" style="enable-background:new 0 0 222.2 154.3;" xml:space="preserve">
<style type="text/css">
	.st0{fill:none;stroke:#010101;}
	.st1{fill:none;stroke:#010101;stroke-linecap:round;stroke-linejoin:round;}
	.st2{fill:none;stroke:#010101;stroke-linecap:round;}
	.st3{fill:none;stroke:#010101;stroke-width:2;stroke-linecap:round;}
	.st4{fill-rule:evenodd;clip-rule:evenodd;fill:#010101;stroke:#010101;stroke-linejoin:round;}
	.st5{fill:none;stroke:#010101;stroke-linecap:square;stroke-linejoin:round;}
	.st6{enable-background:new    ;}
	.st7{fill:#231F20;}
	.st8{fill:#FFFFFF;stroke:#000000;stroke-miterlimit:10;}
</style>
<g id="g8231">
	<path id="path6710-4" class="st0" d="M135.5,36.8v40.1l40-20.1L135.5,36.8z"/>
	<path class="st1" d="M97.1,128.7H72.3l0.6-25v-8.8l-5-2l10-5l-10-5l10-5l-10-5l10-5l-5-2v-19h62.6"/>
	<path id="path6746" class="st2" d="M135.5,66.9h-10c0,11.7,0,23.4,0,35.1c1.2-0.2,2.3,0.5,2.5,1.7s-0.5,2.3-1.7,2.5
		c-0.3,0-0.5,0-0.8,0"/>
	<path id="path6746-8" class="st2" d="M185.5,56.9h-10"/>
	<path id="path6744-5" class="st2" d="M145.5,46.8h-6"/>
	<path id="path6744-5-7" class="st2" d="M145.5,66.8h-6"/>
	<path id="path6744-5-75" class="st2" d="M142.5,49.8v-6"/>
</g>
<path id="path5114" class="st1" d="M205.4,56.8h-19.9V48l-5-2l10-5l-10-5l10-5l-10-5l10-5l-5-2v-5"/>
<g id="g8096">
	<path id="path5094-5-86-76-0-7" class="st2" d="M33.6,60.3v20"/>
	<path id="path5104-8-6-7-5-72" class="st2" d="M43.6,80.3h-20"/>
	<path id="path5104-8-8-9-3-7-8" class="st3" d="M38.6,85.3h-10"/>
	<path id="path5094-5-86-76-0-7-7" class="st2" d="M33.6,85.3v43.4h38.7"/>
	<path id="path7431" class="st2" d="M43.6,73.3h-6"/>
	<path id="path7431-9" class="st2" d="M40.6,76.3v-6"/>
</g>
<g id="g7422">
	<path id="path5375" class="st2" d="M73.6,143.8h20"/>
	<path id="path5375-1" class="st2" d="M78.6,148.8h10"/>
	<path id="path5375-7" class="st2" d="M81.6,153.8h4"/>
	<path id="path5375-1-1" class="st2" d="M83.6,143.8v-15"/>
</g>
<path id="path5427-7-5" class="st4" d="M127.5,114.1l-2,7l-2-7H127.5z"/>
<path id="path5672" class="st2" d="M125.5,116.1v-10"/>
<path id="path5114-2" class="st2" d="M155.6,66.8V104H97.1v24.8l7,0.1h8.8l2-5l5,10l5-10l5,10l5-10l5,10l2-5h5"/>
<g id="g7583">
	<path id="path5094-36-1-0" class="st2" d="M72.9,46.9v-40H33.6v53.4"/>
	<path id="path5096-2-6-9" class="st5" d="M62.9,36.9h20l-10-20L62.9,36.9z"/>
	<path id="path5104-1-62-9" class="st3" d="M62.9,16.9h20"/>
</g>
<g>
	<g class="st6">
		<path class="st7" d="M164,68.5V68h3.4v0.5l-1.6,0.2h-0.3L164,68.5z M165.7,75.3V76H164v-0.5L165.7,75.3L165.7,75.3z M165.1,68h1.2
			c0,1.2,0,2.5,0,3.7v0.8c0,1,0,2.3,0,3.5h-1.2c0-1.2,0-2.5,0-3.7v-0.6C165.1,70.4,165.1,69.2,165.1,68z M170.1,73.7L170,76h-4.3
			v-0.6h3.9l-0.7,0.6l0.5-2.3H170.1z"/>
		<path class="st7" d="M171.1,75.5l1.3-0.2h0.2l1.2,0.2V76h-2.7V75.5z M171.1,68h1.6v0.7h-0.1l-1.4-0.2V68H171.1z M172.2,68h0.5
			l0.1,3.6V76h-0.6V68z M172.2,68h1.1l2.9,7.1h-0.4l2.7-7.1h0.6l-3.1,8h-0.6L172.2,68z M177.6,75.5l1.4-0.2h0.3l1.6,0.2V76h-3.3
			V75.5z M178.7,72.3V68h1.1c0,1.2,0,2.5,0,3.7v0.6c0,1.2,0,2.5,0,3.7h-1.2C178.7,74.8,178.7,73.5,178.7,72.3z M179.2,68h1.7v0.5
			l-1.6,0.2h-0.1L179.2,68L179.2,68z"/>
		<path class="st7" d="M184,71.6c1.1,0,1.7-0.6,1.7-1.6c0-0.9-0.5-1.4-1.5-1.4c-0.2,0-0.6,0-1,0.2l0.5-0.3l-0.2,0.8
			c-0.1,0.5-0.3,0.8-0.7,0.8c-0.3,0-0.5-0.1-0.6-0.4c0.2-1,1.1-1.5,2.2-1.5c1.4,0,2.3,0.8,2.3,1.9c0,1-0.8,1.8-2,2.1V72
			c1.6,0.1,2.3,0.9,2.3,2c0,1.3-1.1,2.3-2.7,2.3c-1.2,0-2.1-0.5-2.3-1.7c0.1-0.3,0.3-0.4,0.6-0.4c0.4,0,0.5,0.3,0.7,0.9l0.2,0.9
			l-0.5-0.4c0.4,0.2,0.8,0.2,1.1,0.2c1.2,0,1.8-0.6,1.8-1.7c0-1-0.6-1.7-1.8-1.7h-0.6v-0.6h0.5V71.6z"/>
		<path class="st7" d="M192.8,75.6V76h-4.4v-0.4l1.7-0.3h1L192.8,75.6z M191,68.2l0.2,0.1V70v3.5c0,0.8,0,1.7,0,2.5H190
			c0-0.8,0-1.7,0-2.5v-4.3l-1.6,0.1v-0.5L191,68.2z"/>
		<path class="st7" d="M198.8,75.6V76h-4.4v-0.4l1.7-0.3h1L198.8,75.6z M197,68.2l0.2,0.1V70v3.5c0,0.8,0,1.7,0,2.5H196
			c0-0.8,0-1.7,0-2.5v-4.3l-1.6,0.1v-0.5L197,68.2z"/>
	</g>
</g>
<g>
	<g class="st6">
		<path class="st7" d="M199.2,38.2v0.4h-4.4v-0.4l1.7-0.3h1L199.2,38.2z M197.4,30.7l0.2,0.1v1.7V36c0,0.8,0,1.7,0,2.5h-1.1
			c0-0.8,0-1.7,0-2.5v-4.3l-1.6,0.1v-0.5L197.4,30.7z"/>
		<path class="st7" d="M200.4,35.2h2.8V36h-2.8V35.2z"/>
		<path class="st7" d="M204.2,37.8c0.6-0.6,1.2-1.3,1.8-1.8c1.2-1.3,1.7-2.2,1.7-3.2s-0.6-1.6-1.4-1.6c-0.3,0-0.8,0.1-1.2,0.3
			l0.7-0.4l-0.3,1.1c-0.2,0.6-0.4,0.8-0.7,0.8s-0.5-0.1-0.6-0.4c0.1-1.3,1.2-1.9,2.4-1.9c1.5,0,2.2,0.8,2.2,2c0,1-0.5,1.9-2.4,3.6
			c-0.4,0.4-1,0.9-1.5,1.5l-0.1-0.2h4.4v1h-4.9L204.2,37.8L204.2,37.8z"/>
		<path class="st7" d="M215.2,34.7c0,3-1.2,4-2.5,4s-2.5-1.1-2.5-4c0-3,1.2-4,2.5-4C213.9,30.7,215.2,31.8,215.2,34.7z M212.7,38.2
			c0.7,0,1.4-0.7,1.4-3.5s-0.7-3.5-1.4-3.5s-1.4,0.7-1.4,3.5C211.2,37.5,211.9,38.2,212.7,38.2z"/>
		<path class="st7" d="M217.8,29.7l0.2,0.1v1.7V36c0,0.8,0,1.7,0,2.5h-1.1c0-0.8,0-1.7,0-2.5v-5.3l-1-0.1v-0.4L217.8,29.7z
			 M218.9,38.2v0.4h-3v-0.4l1.3-0.2h0.3L218.9,38.2z M221.4,32.9l-4,4v-0.7l3.2-3.3H221.4z M220.9,37.9l1.3,0.2v0.4h-1.6l-2-3.2
			l0.7-0.7l2.3,3.7L220.9,37.9z M220.2,33.6l-1.1-0.3v-0.5h2.8v0.5l-1.3,0.2L220.2,33.6z"/>
	</g>
</g>
<g>
	<g class="st6">
		<path class="st7" d="M87.5,77.8v0.4h-4.4v-0.4l1.7-0.3h1L87.5,77.8z M85.7,70.3l0.2,0.1v1.7v3.5c0,0.8,0,1.7,0,2.5h-1.1
			c0-0.8,0-1.7,0-2.5v-4.3l-1.6,0.1V71L85.7,70.3z"/>
		<path class="st7" d="M93.7,74.3c0,3-1.2,4-2.5,4s-2.5-1.1-2.5-4c0-3,1.2-4,2.5-4S93.7,71.4,93.7,74.3z M91.2,77.8
			c0.7,0,1.4-0.7,1.4-3.5s-0.7-3.5-1.4-3.5c-0.7,0-1.4,0.7-1.4,3.5C89.8,77.1,90.5,77.8,91.2,77.8z"/>
		<path class="st7" d="M99.7,74.3c0,3-1.2,4-2.5,4s-2.5-1.1-2.5-4c0-3,1.2-4,2.5-4S99.7,71.4,99.7,74.3z M97.2,77.8
			c0.7,0,1.4-0.7,1.4-3.5s-0.7-3.5-1.4-3.5c-0.7,0-1.4,0.7-1.4,3.5C95.8,77.1,96.5,77.8,97.2,77.8z"/>
		<path class="st7" d="M100.7,74.8h2.8v0.8h-2.8V74.8z"/>
	</g>
</g>
<g>
	<g class="st6">
		<path class="st7" d="M85.2,88.8c0.7,0,1.2-0.3,1.7-0.8l0.2,0.1c-0.4,1-1.2,1.5-2.2,1.5c-1.3,0-2.3-0.9-2.3-2.3
			c0-1.5,1-2.5,2.6-2.5s2.5,1.2,2.5,3.1c0,2.3-1.3,4.3-4.4,5l-0.1-0.5c2.5-0.8,3.4-2.2,3.4-4.4c0-1.9-0.6-2.8-1.5-2.8
			c-0.8,0-1.4,0.6-1.4,1.8C83.6,88.3,84.3,88.8,85.2,88.8z"/>
		<path class="st7" d="M93.7,88.7c0,3-1.2,4-2.5,4s-2.5-1.1-2.5-4c0-3,1.2-4,2.5-4S93.7,85.8,93.7,88.7z M91.2,92.2
			c0.7,0,1.4-0.7,1.4-3.5s-0.7-3.5-1.4-3.5c-0.7,0-1.4,0.7-1.4,3.5C89.8,91.5,90.5,92.2,91.2,92.2z"/>
		<path class="st7" d="M99.7,88.7c0,3-1.2,4-2.5,4s-2.5-1.1-2.5-4c0-3,1.2-4,2.5-4S99.7,85.8,99.7,88.7z M97.2,92.2
			c0.7,0,1.4-0.7,1.4-3.5s-0.7-3.5-1.4-3.5c-0.7,0-1.4,0.7-1.4,3.5C95.8,91.5,96.5,92.2,97.2,92.2z"/>
		<path class="st7" d="M102.4,83.7l0.2,0.1v1.7V90c0,0.8,0,1.7,0,2.5h-1.1c0-0.8,0-1.7,0-2.5v-5.3l-1-0.1v-0.4L102.4,83.7z
			 M103.5,92.2v0.4h-3v-0.4l1.3-0.2h0.3L103.5,92.2z M105.9,86.9l-4,4v-0.7l3.2-3.3H105.9z M105.4,91.9l1.3,0.2v0.4h-1.6l-2-3.2
			l0.7-0.7l2.3,3.7L105.4,91.9z M104.8,87.6l-1.1-0.3v-0.5h2.8v0.5l-1.3,0.2L104.8,87.6z"/>
	</g>
</g>
<g>
	<g class="st6">
		<path class="st7" d="M0.6,86.5c0.6-0.6,1.2-1.3,1.8-1.8c1.2-1.3,1.7-2.2,1.7-3.2s-0.6-1.6-1.4-1.6c-0.3,0-0.8,0.1-1.2,0.3l0.7-0.4
			l-0.3,1.1c-0.2,0.6-0.4,0.8-0.7,0.8s-0.5-0.1-0.6-0.4C0.7,80,1.8,79.4,3,79.4c1.5,0,2.2,0.8,2.2,2c0,1-0.5,1.9-2.4,3.6
			c-0.4,0.4-1,0.9-1.5,1.5l-0.1-0.2h4.4v1h-5V86.5z"/>
		<path class="st7" d="M11.5,83.4c0,3-1.2,4-2.5,4s-2.5-1.1-2.5-4c0-3,1.2-4,2.5-4S11.5,80.4,11.5,83.4z M9,86.9
			c0.7,0,1.4-0.7,1.4-3.5S9.7,79.9,9,79.9s-1.4,0.7-1.4,3.5C7.6,86.2,8.3,86.9,9,86.9z"/>
		<path class="st7" d="M13.7,79.9l-1.6-0.2v-0.5h3.3v0.5L14,79.9H13.7z M12.9,79.2h1.2l2.4,6.8h-0.3l2.3-6.8h0.7l-2.7,8.1H16
			L12.9,79.2z M18.4,79.9l-1.2-0.1v-0.5H20v0.5L18.7,80L18.4,79.9L18.4,79.9z"/>
	</g>
</g>
<g>
	<g class="st6">
		<path class="st7" d="M121.1,145.7v0.4h-4.4v-0.4l1.7-0.3h1L121.1,145.7z M119.2,138.2l0.2,0.1v1.7v3.5c0,0.8,0,1.7,0,2.5h-1.1
			c0-0.8,0-1.7,0-2.5v-4.3l-1.6,0.1v-0.5L119.2,138.2z"/>
		<path class="st7" d="M127.3,142.2c0,3-1.2,4-2.5,4s-2.5-1.1-2.5-4c0-3,1.2-4,2.5-4C126,138.2,127.3,139.3,127.3,142.2z
			 M124.8,145.7c0.7,0,1.4-0.7,1.4-3.5s-0.7-3.5-1.4-3.5c-0.7,0-1.4,0.7-1.4,3.5C123.3,145,124,145.7,124.8,145.7z"/>
		<path class="st7" d="M129.9,137.2l0.2,0.1v1.7v4.5c0,0.8,0,1.7,0,2.5H129c0-0.8,0-1.7,0-2.5v-5.3l-1-0.1v-0.4L129.9,137.2z
			 M131,145.7v0.4h-3v-0.4l1.3-0.2h0.3L131,145.7z M133.5,140.4l-4,4v-0.7l3.2-3.3H133.5z M133,145.4l1.3,0.2v0.4h-1.6l-2-3.2
			l0.7-0.7l2.3,3.7L133,145.4z M132.3,141.1l-1.1-0.3v-0.5h2.8v0.5l-1.3,0.2L132.3,141.1z"/>
	</g>
</g>
<g>
	<g class="st6">
		<path class="st7" d="M151,128.5v-0.7h5.7v0.7H151z M153.5,125.2h0.7v6h-0.7V125.2z"/>
		<path class="st7" d="M158.2,127.6c0.6-0.2,1.1-0.3,1.7-0.3c1.6,0,2.6,0.9,2.6,2.5c0,1.5-1.1,2.6-2.8,2.6c-1.2,0-2-0.6-2.2-1.7
			c0.1-0.3,0.3-0.4,0.6-0.4c0.4,0,0.5,0.2,0.7,0.8l0.2,0.9l-0.5-0.4c0.4,0.2,0.8,0.2,1.1,0.2c1.2,0,1.8-0.7,1.8-1.9
			s-0.7-1.8-1.9-1.8c-0.3,0-0.7,0-1.1,0.1l-0.3-0.1l0.3-3.6h3.9v1h-3.7l0.3-0.6l-0.2,3h-0.5L158.2,127.6L158.2,127.6z"/>
		<path class="st7" d="M164.8,124.8l-1.6-0.2v-0.5h3.3v0.5l-1.5,0.1L164.8,124.8L164.8,124.8z M163.9,124.1h1.2l2.4,6.8h-0.3
			l2.3-6.8h0.7l-2.7,8.1H167L163.9,124.1z M169.4,124.8l-1.2-0.1v-0.5h2.8v0.5l-1.3,0.2L169.4,124.8L169.4,124.8z"/>
	</g>
</g>
<g>
	<g class="st6">
		<path class="st7" d="M172.4,6.4V5.7h5.7v0.7C178.1,6.4,172.4,6.4,172.4,6.4z M174.8,3.1h0.7v6h-0.7V3.1z"/>
		<path class="st7" d="M179.6,5.5c0.6-0.2,1.1-0.3,1.7-0.3c1.6,0,2.6,0.9,2.6,2.5c0,1.5-1.1,2.6-2.8,2.6c-1.2,0-2-0.6-2.2-1.7
			c0.1-0.3,0.3-0.4,0.6-0.4c0.4,0,0.5,0.2,0.7,0.8l0.2,0.9l-0.5-0.4c0.4,0.2,0.8,0.2,1.1,0.2c1.2,0,1.8-0.7,1.8-1.9S182.1,6,180.9,6
			c-0.3,0-0.7,0-1.1,0.1L179.5,6l0.3-3.6h3.9v1H180l0.3-0.6l-0.2,3h-0.5V5.5z"/>
		<path class="st7" d="M186.1,2.7l-1.6-0.2V2h3.3v0.5l-1.5,0.1h-0.2V2.7z M185.3,2h1.2l2.4,6.8h-0.3l2.3-6.8h0.7l-2.7,8.1h-0.5
			L185.3,2z M190.8,2.7l-1.2-0.1V2h2.8v0.5L191,2.7H190.8z"/>
	</g>
</g>
<line class="st8" x1="155.5" y1="46.8" x2="155.5" y2="30.7"/>
<g>
	<g>
		<path d="M143.1,25.2v-0.7h5.7v0.7H143.1z M145.5,21.9h0.7v6h-0.7V21.9z"/>
		<path d="M154.4,28.4v0.4H150v-0.4l1.7-0.3h1L154.4,28.4z M152.5,21l0.2,0.1l0,1.7v3.5c0,0.8,0,1.7,0,2.5h-1c0-0.8,0-1.7,0-2.5V22
			l-1.6,0.1v-0.5L152.5,21z"/>
		<path d="M156.2,24.3c0.6-0.2,1.1-0.3,1.7-0.3c1.5,0,2.6,0.9,2.6,2.5c0,1.5-1.1,2.6-2.8,2.6c-1.2,0-2-0.6-2.2-1.7
			c0.1-0.3,0.3-0.4,0.6-0.4c0.4,0,0.5,0.2,0.7,0.8l0.2,0.9l-0.5-0.4c0.4,0.2,0.8,0.2,1.1,0.2c1.2,0,1.8-0.8,1.8-1.9
			c0-1.2-0.7-1.9-1.9-1.9c-0.3,0-0.7,0-1.1,0.1l-0.3-0.1l0.3-3.6h3.9v1h-3.7l0.3-0.5l-0.2,3h-0.5V24.3z"/>
		<path d="M162.7,21.5l-1.6-0.2v-0.5h3.2v0.5l-1.4,0.1H162.7z M161.9,20.8h1.2l2.4,6.8h-0.3l2.3-6.8h0.6l-2.7,8.1h-0.5L161.9,20.8z
			 M167.4,21.5l-1.2-0.1v-0.5h2.8v0.5l-1.3,0.2H167.4z"/>
	</g>
</g>
</svg>
